<svg xmlns="http://www.w3.org/2000/svg" height="48" viewBox="0 -960 960 960" width="48"><path d="M292-424.231V-468h376v43.769H292ZM292-253v-43.769h254.769V-253H292Zm-79.616 148q-27.782 0-48.083-20.301T144-173.384v-544.462q0-27.783 20.301-48.084 20.301-20.301 48.083-20.301h66.693v-78h48.769v78h307.385v-78h46.462v78h65.923q27.782 0 48.083 20.301T816-717.846v544.462q0 27.782-20.301 48.083T747.616-105H212.384Zm0-43.769h535.232q9.23 0 16.923-7.692 7.692-7.693 7.692-16.923V-550H187.769v376.616q0 9.23 7.692 16.923 7.693 7.692 16.923 7.692Z"/></svg>